<svg xmlns="http://www.w3.org/2000/svg" viewBox="0 0 670.01 643"><defs><style>.a,.aa,.ab,.ac,.ad,.ae,.af,.ag,.ah,.ai,.aj,.ak,.al,.am,.an,.ao,.ap,.aq,.ar,.as,.at,.au,.f,.n,.o,.p,.q,.r,.s,.t,.u,.v,.w,.x,.y,.z{fill:#292e73;}.b,.c,.d,.g,.h,.i,.j,.k,.m{fill:none;}.b,.c,.h,.i,.j,.l,.m{stroke:#ed2024;}.b,.g,.h,.i,.j,.k{stroke-miterlimit:10;}.b{stroke-width:6px;}.c,.l,.m{stroke-linejoin:round;}.c,.d,.i,.k{stroke-width:4px;}.d,.g,.k{stroke:#292e73;}.d,.i,.j,.l,.m{stroke-linecap:round;}.d{stroke-linejoin:bevel;}.e,.l{fill:#ed2024;}.aa,.ab,.ac,.ad,.ae,.af,.ag,.ah,.ai,.aj,.ak,.al,.am,.an,.ao,.ap,.aq,.ar,.as,.at,.au,.f,.n,.o,.p,.q,.r,.s,.t,.u,.v,.w,.x,.y,.z{isolation:isolate;}.f{font-size:30.68px;}.aa,.ab,.ac,.ad,.f,.n,.o,.p,.q,.r,.s,.t,.u,.v,.w,.x,.y,.z{font-family:PreetiBold, Preeti;}.g,.h{stroke-width:2px;}.j{stroke-width:3px;}.l{stroke-width:0.25px;}.m{stroke-width:5px;}.n{font-size:40.07px;}.o{font-size:40.04px;}.p{font-size:39.98px;}.q{font-size:40.14px;}.r{font-size:40px;}.s{font-size:39.87px;}.t{font-size:40.07px;}.u{font-size:39.91px;}.v{font-size:39.86px;}.w{font-size:40.01px;}.x{font-size:39.92px;}.y{font-size:39.93px;}.z{font-size:40.03px;}.aa{font-size:40.21px;}.ab{font-size:40.11px;}.ac{font-size:40.04px;}.ad{font-size:40.24px;}.ae{font-size:30.39px;}.ae,.af,.ag,.ah,.ai,.aj,.ak,.al,.am,.an,.ao,.ap,.aq,.ar,.as,.at,.au{font-family:YakthungBold, Yakthung;}.af{font-size:30.31px;}.ag{font-size:30.35px;}.ah{font-size:30.52px;}.ai{font-size:30.34px;}.aj{font-size:30.35px;}.ak{font-size:30.45px;}.al{font-size:30.28px;}.am{font-size:30.52px;}.an{font-size:30.4px;}.ao{font-size:30.34px;}.ap{font-size:30.46px;}.aq{font-size:30.42px;}.ar{font-size:30.2px;}.as{font-size:30.45px;}.at{font-size:30.37px;}.au{font-size:30.31px;}</style></defs><title>LOGO</title><path class="a" d="M296.86,10.09a143.41,143.41,0,0,1,85.95,28.16l1.92,1.45a145.38,145.38,0,0,0-70.47,72.39,242.73,242.73,0,0,0-51.86,12.29c-1.13-.89-2.22-1.72-3.28-2.51A151.37,151.37,0,0,0,168.4,92.16H167a135.64,135.64,0,0,1,17.46-28.6,138.92,138.92,0,0,1,50.67-39.87,147,147,0,0,1,61.73-13.6m0-4c-43.7,0-86.9,18.93-115.53,55a138.71,138.71,0,0,0-20.44,35.27q3.75-.18,7.52-.18a148.12,148.12,0,0,1,88.32,28.91c1.68,1.24,3.31,2.52,4.92,3.81A237.36,237.36,0,0,1,317,115.77a140.56,140.56,0,0,1,8-15.89,143.12,143.12,0,0,1,67.32-59.23q-3.42-2.91-7.1-5.62A148.21,148.21,0,0,0,296.86,6.09Z" transform="translate(-6.34 -6.09)"/><path class="a" d="M162.33,95.35a138.59,138.59,0,0,0-4.39,84.32,143.85,143.85,0,0,0,4.82,15A226.37,226.37,0,0,0,134,237.89c-1.45.11-2.82.23-4.15.36a151.83,151.83,0,0,0-88.16,39.84A132.36,132.36,0,0,1,63,147.4a139.69,139.69,0,0,1,42-34.91A143.89,143.89,0,0,1,159.7,95.65l2.67-.25M168.45,91c-3,.13-6.09.34-9.16.65C79.4,99.75,21.48,168.82,29.91,245.89a136.23,136.23,0,0,0,10.33,39.2,146.81,146.81,0,0,1,90-42.79c2.1-.21,4.19-.37,6.28-.5a222.38,222.38,0,0,1,30.88-46.33,140.11,140.11,0,0,1-5.55-16.81A135.15,135.15,0,0,1,168.45,91Z" transform="translate(-6.34 -6.09)"/><path class="a" d="M41.32,283.8a145.39,145.39,0,0,0,60.38,61.29,153.26,153.26,0,0,0,14.7,7,221.37,221.37,0,0,0,12.66,49.82q-1.32,1.5-2.49,3a141.17,141.17,0,0,0-30.89,89,143.49,143.49,0,0,1-30-17C35.54,454.6,16.3,422.3,11.51,386c-4.72-35.85,5.24-71.39,28-100.08.57-.72,1.15-1.43,1.75-2.15m.94-7.19c-2,2.22-3.94,4.49-5.82,6.85C-12.5,344.88-.46,433,63.26,480.12A147,147,0,0,0,99.8,499.87a136.4,136.4,0,0,1,29.84-92.47c1.3-1.62,2.63-3.21,4-4.75a216.74,216.74,0,0,1-13.58-53.43,149,149,0,0,1-16.45-7.69,141.68,141.68,0,0,1-61.36-65Z" transform="translate(-6.34 -6.09)"/><path class="a" d="M201.85,498.27a237.77,237.77,0,0,0,44.88,27.82c.1,1.35.22,2.63.36,3.87A142.31,142.31,0,0,0,288,615a146,146,0,0,1-33.61,7.46q-7.5.75-15,.76a144.1,144.1,0,0,1-94.21-34.83,134.46,134.46,0,0,1-46.25-87.26c-.09-.82-.17-1.64-.24-2.47a153,153,0,0,0,51,8.72,154.94,154.94,0,0,0,52.14-9.06M94.3,492.68c.13,2.93.34,5.88.67,8.84,7.84,72.08,70.95,125.66,144.43,125.66q7.71,0,15.37-.78a149.81,149.81,0,0,0,40.63-9.94,138,138,0,0,1-44.29-86.91c-.23-2-.39-4-.52-6.07a232.42,232.42,0,0,1-48-29.74,151.08,151.08,0,0,1-52.88,9.59A149.39,149.39,0,0,1,94.3,492.68Z" transform="translate(-6.34 -6.09)"/><path class="a" d="M417.45,531.09c1.15.91,2.24,1.75,3.32,2.55A153.59,153.59,0,0,0,513.17,564h.31a135.53,135.53,0,0,1-17.84,28.46,140.29,140.29,0,0,1-51,39.29,149.8,149.8,0,0,1-61.8,13.33,145.63,145.63,0,0,1-87.63-28.8l-1.92-1.44A146.17,146.17,0,0,0,365,543a246.36,246.36,0,0,0,52.48-11.9m.77-4.51a242.19,242.19,0,0,1-56,12.74,138.17,138.17,0,0,1-8.13,15.77,144,144,0,0,1-68.4,58.75c2.3,1.94,4.67,3.84,7.13,5.66a150.55,150.55,0,0,0,90,29.59c43.71,0,87-18.6,115.9-54.14a139,139,0,0,0,20.91-35.13q-3.24.12-6.48.14a150.56,150.56,0,0,1-90-29.58c-1.68-1.25-3.32-2.54-4.93-3.85Z" transform="translate(-6.34 -6.09)"/><path class="a" d="M641.4,379a131.15,131.15,0,0,1,7.65,32.69c3.6,35.07-7,69.66-29.73,97.38a140.77,140.77,0,0,1-42.74,35,146.6,146.6,0,0,1-55.65,16.6c-.91.09-1.82.16-2.74.23a137.3,137.3,0,0,0,5.09-84.29,140.35,140.35,0,0,0-4.74-15,226.44,226.44,0,0,0,29.34-43c1.47-.1,2.87-.21,4.22-.33a153.92,153.92,0,0,0,89.3-39.16m1.52-7a148.82,148.82,0,0,1-91.2,42.13c-2.12.2-4.23.35-6.35.46a221.84,221.84,0,0,1-31.44,46.07,135,135,0,0,1-1.87,104.48c3.07-.1,6.15-.28,9.24-.57C602,557.08,660.93,488.43,653,411.31a135.25,135.25,0,0,0-10.11-39.24Z" transform="translate(-6.34 -6.09)"/><path class="a" d="M587.06,162.2a143,143,0,0,1,30,17c30.15,22.3,49.4,54.59,54.21,90.93,4.74,35.84-5.2,71.39-28,100.08q-.85,1.08-1.74,2.16a145.29,145.29,0,0,0-60.42-61.28,150.9,150.9,0,0,0-14.7-7,220.16,220.16,0,0,0-12.69-49.81c.89-1.05,1.71-2.05,2.49-3a141.17,141.17,0,0,0,30.85-89m-4.19-5.94a136.39,136.39,0,0,1-29.79,92.49c-1.28,1.6-2.62,3.18-4,4.74A216.06,216.06,0,0,1,562.69,307a146.54,146.54,0,0,1,16.46,7.69,141.5,141.5,0,0,1,61.39,65q3-3.33,5.81-6.86c48.85-61.51,36.77-149.58-27-196.71a146.69,146.69,0,0,0-36.56-19.73Z" transform="translate(-6.34 -6.09)"/><path class="a" d="M443.34,33.09a144.07,144.07,0,0,1,94.19,34.8,134.46,134.46,0,0,1,46.26,87.2c.09.82.17,1.65.24,2.48a152.34,152.34,0,0,0-50.93-8.7A154.69,154.69,0,0,0,480.88,158,235.19,235.19,0,0,0,436,130.14c-.11-1.35-.23-2.63-.36-3.87a142.32,142.32,0,0,0-41-84.95,147.13,147.13,0,0,1,48.64-8.25m0-4a147.55,147.55,0,0,0-15.44.78,149.63,149.63,0,0,0-40.59,10,138,138,0,0,1,44.34,86.89c.22,2,.4,4,.52,6.07a231.48,231.48,0,0,1,48,29.72,150.35,150.35,0,0,1,108.28,1c-.13-2.93-.34-5.87-.66-8.83-7.89-72.06-71-125.59-144.43-125.59Z" transform="translate(-6.34 -6.09)"/><ellipse class="b" cx="335.06" cy="324" rx="224.5" ry="214.5"/><ellipse class="c" cx="336.81" cy="320.5" rx="164.25" ry="154.36"/><path class="d" d="M183.4,319.89c82.87-13.5,124.42-67.19,159.73-73.15S397.74,309,505.4,319.89" transform="translate(-6.34 -6.09)"/><polygon class="e" points="156.27 333.86 145.13 326.54 132.78 331.57 136.3 318.71 127.7 308.52 141.02 307.89 148.05 296.57 152.76 309.04 165.71 312.23 155.3 320.56 156.27 333.86"/><polygon class="e" points="516.13 330.86 527.28 323.54 539.62 328.57 536.11 315.71 544.71 305.52 531.39 304.89 524.36 293.57 519.65 306.04 506.7 309.23 517.1 317.56 516.13 330.86"/><text class="f" transform="translate(284.92 456.34)">:yf= @)^^</text><polygon class="a" points="224.86 285 215.19 283.11 208.14 290.01 206.96 280.23 198.22 275.66 207.16 271.5 208.8 261.79 215.51 269 225.26 267.56 220.48 276.18 224.86 285"/><polygon class="a" points="487.86 289 478.19 287.11 471.14 294.01 469.96 284.23 461.22 279.66 470.16 275.5 471.8 265.79 478.51 273 488.26 271.56 483.48 280.18 487.86 289"/><polygon class="a" points="381.86 233 372.19 231.11 365.14 238.01 363.96 228.23 355.22 223.66 364.16 219.5 365.8 209.79 372.51 217 382.26 215.56 377.48 224.18 381.86 233"/><polygon class="a" points="309.86 241 300.19 239.11 293.14 246.01 291.96 236.23 283.22 231.66 292.16 227.5 293.8 217.79 300.51 225 310.26 223.56 305.48 232.18 309.86 241"/><path class="a" d="M396.7,186.92c.94-.26,1.9,13.78,11.49,18.57,9.1,4.55,20.08-2.22,20.39-1.35s-12.49,11.88-23.33,6.47C394,205,395.67,187.2,396.7,186.92Z" transform="translate(-6.34 -6.09)"/><ellipse class="g" cx="226.33" cy="349.52" rx="19.94" ry="3.3"/><path class="g" d="M212.4,358.72c.34,4.94,4.61,8.09,5.17,8.49,3.67,2.62,7.79,2.69,15.49,2.83,8.28.14,13.36.23,17.21-2.83.59-.47,4.4-3.59,4-8a7,7,0,0,0-1.72-4.25c-2.44-2.61-6.67-2.39-17.79-2.35-15.19,0-20-.32-21.8,2.35C212.26,356.09,212.34,357.21,212.4,358.72Z" transform="translate(-6.34 -6.09)"/><path class="h" d="M231.84,353.81c1.77-1,1-4,1-8.21.07-6.79,2.31-10.2,1.51-10.49-1-.36-4.79,4.65-6.06,10.49-.3,1.36-1.52,6.91,1,8.21A2.86,2.86,0,0,0,231.84,353.81Z" transform="translate(-6.34 -6.09)"/><ellipse class="g" cx="451.72" cy="352.52" rx="19.94" ry="3.3"/><path class="g" d="M478.29,361.72c-.34,4.94-4.61,8.09-5.16,8.49-3.67,2.62-7.79,2.69-15.5,2.83-8.27.14-13.36.23-17.21-2.83-.58-.47-4.4-3.59-4-8a7,7,0,0,1,1.73-4.25c2.43-2.61,6.66-2.39,17.78-2.35,15.19,0,20-.32,21.81,2.35C478.47,359.09,478.4,360.21,478.29,361.72Z" transform="translate(-6.34 -6.09)"/><path class="h" d="M458.9,356.81c-1.78-1-1-4-1-8.21-.07-6.79-2.31-10.2-1.52-10.49,1-.36,4.79,4.65,6.07,10.49.29,1.36,1.51,6.91-1,8.21A2.86,2.86,0,0,1,458.9,356.81Z" transform="translate(-6.34 -6.09)"/><path class="i" d="M267.24,233c.89,2.62,2.39,7.18,4,12.95,10,36.39,5.81,55.87,17.51,75.36A53.43,53.43,0,0,0,299.4,334" transform="translate(-6.34 -6.09)"/><path class="j" d="M267.67,232.66c-3.75-1.58-7.3-1.87-9-.71-2.61,1.76.14,6,1.94,8,3.11,3.49,8.55,6.24,14,7.2" transform="translate(-6.34 -6.09)"/><path class="i" d="M413.72,234c-.89,2.62-2.39,7.18-4,12.95-10,36.39-5.81,55.87-17.51,75.36A53,53,0,0,1,381.54,335" transform="translate(-6.34 -6.09)"/><path class="j" d="M413.29,233.66c3.75-1.58,7.3-1.87,9-.71,2.62,1.76-.13,6-1.93,8-3.12,3.49-8.55,6.24-14,7.2" transform="translate(-6.34 -6.09)"/><path class="a" d="M282.76,287.72h0a14.67,14.67,0,1,1-5.42,1,14.44,14.44,0,0,1,5.42-1m0-2a16.47,16.47,0,0,0-6.16,1.19,16.61,16.61,0,1,0,6.16-1.19Z" transform="translate(-6.34 -6.09)"/><ellipse class="e" cx="267.01" cy="291.37" rx="2.02" ry="2.63"/><ellipse class="e" cx="269.01" cy="303.37" rx="2.02" ry="2.63"/><ellipse class="e" cx="284.01" cy="301.37" rx="2.02" ry="2.63"/><ellipse class="e" cx="281.01" cy="288.37" rx="2.02" ry="2.63"/><path class="a" d="M397.77,290.72a14.37,14.37,0,0,1,5.42,1,14.6,14.6,0,1,1-5.42-1m0-2a16.66,16.66,0,1,0,6.16,1.19A16.47,16.47,0,0,0,397.77,288.72Z" transform="translate(-6.34 -6.09)"/><ellipse class="e" cx="400.83" cy="294.37" rx="2.02" ry="2.63"/><ellipse class="e" cx="398.83" cy="306.37" rx="2.02" ry="2.63"/><ellipse class="e" cx="383.83" cy="304.37" rx="2.02" ry="2.63"/><ellipse class="e" cx="386.83" cy="291.37" rx="2.02" ry="2.63"/><ellipse class="e" cx="282.3" cy="199.64" rx="9.72" ry="8.98"/><path class="e" d="M289.15,194c0,1.45.78,2.63.52,2.63a3.22,3.22,0,0,1-1.46-2.63c0-1.46-.84-2.64-.58-2.64A3.19,3.19,0,0,1,289.15,194Z" transform="translate(-6.34 -6.09)"/><path class="e" d="M285.19,194.42c.49,1.38,1.63,2.28,1.38,2.35a3.42,3.42,0,0,1-2.26-2.09c-.49-1.38-1.68-2.26-1.44-2.34A3.39,3.39,0,0,1,285.19,194.42Z" transform="translate(-6.34 -6.09)"/><path class="e" d="M281.58,196c.93,1.18,2.31,1.71,2.1,1.85a3.63,3.63,0,0,1-2.85-1.34c-.93-1.18-2.36-1.68-2.15-1.82A3.63,3.63,0,0,1,281.58,196Z" transform="translate(-6.34 -6.09)"/><path class="e" d="M278.66,198.45c1.27.85,2.77,1,2.61,1.15a3.72,3.72,0,0,1-3.16-.46c-1.27-.85-2.8-.92-2.65-1.11A3.73,3.73,0,0,1,278.66,198.45Z" transform="translate(-6.34 -6.09)"/><path class="e" d="M276.71,201.65c1.5.45,3,.13,2.88.36a3.79,3.79,0,0,1-3.16.46c-1.5-.45-3-.08-2.9-.3A3.71,3.71,0,0,1,276.71,201.65Z" transform="translate(-6.34 -6.09)"/><path class="e" d="M275.94,205.26c1.57,0,2.85-.73,2.85-.49a3.55,3.55,0,0,1-2.85,1.35c-1.58,0-2.86.77-2.86.53A3.57,3.57,0,0,1,275.94,205.26Z" transform="translate(-6.34 -6.09)"/><path class="e" d="M276.4,208.9c1.5-.44,2.47-1.5,2.55-1.27a3.33,3.33,0,0,1-2.26,2.09c-1.5.45-2.45,1.55-2.53,1.33A3.31,3.31,0,0,1,276.4,208.9Z" transform="translate(-6.34 -6.09)"/><path class="e" d="M278.07,212.24c1.27-.85,1.84-2.13,2-1.94a3.13,3.13,0,0,1-1.46,2.64c-1.27.85-1.81,2.17-2,2A3.13,3.13,0,0,1,278.07,212.24Z" transform="translate(-6.34 -6.09)"/><path class="e" d="M280.77,214.94c.92-1.18,1-2.55,1.25-2.41a3,3,0,0,1-.5,2.92c-.93,1.17-1,2.58-1.21,2.44A3,3,0,0,1,280.77,214.94Z" transform="translate(-6.34 -6.09)"/><path class="e" d="M284.24,216.74c.48-1.39.13-2.73.38-2.66a3,3,0,0,1,.5,2.92c-.49,1.39-.08,2.75-.33,2.67A3,3,0,0,1,284.24,216.74Z" transform="translate(-6.34 -6.09)"/><path class="e" d="M288.14,217.46c0-1.46-.78-2.64-.53-2.64a3.18,3.18,0,0,1,1.46,2.64c0,1.45.84,2.63.58,2.63A3.22,3.22,0,0,1,288.14,217.46Z" transform="translate(-6.34 -6.09)"/><path class="e" d="M292.09,217c-.49-1.39-1.63-2.29-1.38-2.36a3.42,3.42,0,0,1,2.26,2.09c.49,1.38,1.68,2.27,1.44,2.34A3.44,3.44,0,0,1,292.09,217Z" transform="translate(-6.34 -6.09)"/><path class="e" d="M295.7,215.49c-.92-1.18-2.31-1.71-2.1-1.85a3.64,3.64,0,0,1,2.86,1.34c.92,1.18,2.35,1.68,2.14,1.82A3.66,3.66,0,0,1,295.7,215.49Z" transform="translate(-6.34 -6.09)"/><path class="e" d="M298.62,213c-1.27-.86-2.76-1-2.61-1.16a3.72,3.72,0,0,1,3.16.46c1.28.85,2.8.92,2.65,1.11A3.77,3.77,0,0,1,298.62,213Z" transform="translate(-6.34 -6.09)"/><path class="e" d="M300.57,209.79c-1.5-.45-2.95-.13-2.88-.35a3.71,3.71,0,0,1,3.17-.47c1.49.45,3,.08,2.89.3A3.7,3.7,0,0,1,300.57,209.79Z" transform="translate(-6.34 -6.09)"/><path class="e" d="M301.4,206.19c-1.58,0-2.86.72-2.86.48a3.55,3.55,0,0,1,2.86-1.34c1.57,0,2.85-.78,2.85-.54A3.6,3.6,0,0,1,301.4,206.19Z" transform="translate(-6.34 -6.09)"/><path class="e" d="M300.88,202.54c-1.5.45-2.47,1.5-2.55,1.27a3.31,3.31,0,0,1,2.26-2.09c1.5-.45,2.46-1.55,2.54-1.33A3.36,3.36,0,0,1,300.88,202.54Z" transform="translate(-6.34 -6.09)"/><path class="e" d="M299.22,199.2c-1.28.86-1.85,2.13-2,1.94a3.13,3.13,0,0,1,1.45-2.64c1.27-.85,1.81-2.17,2-2A3.08,3.08,0,0,1,299.22,199.2Z" transform="translate(-6.34 -6.09)"/><path class="e" d="M296.52,196.5c-.93,1.18-1,2.56-1.26,2.42a3.07,3.07,0,0,1,.5-2.92c.93-1.18,1-2.59,1.21-2.45A3,3,0,0,1,296.52,196.5Z" transform="translate(-6.34 -6.09)"/><path class="e" d="M293.05,194.7c-.49,1.39-.14,2.73-.39,2.66a3,3,0,0,1-.5-2.92c.49-1.38.08-2.75.33-2.67A3,3,0,0,1,293.05,194.7Z" transform="translate(-6.34 -6.09)"/><ellipse class="k" cx="335.07" cy="324.5" rx="215.72" ry="205.5"/><rect class="h" x="262.06" y="411.39" width="152" height="12.9"/><rect class="h" x="271.96" y="399.52" width="131.62" height="11.56"/><rect class="h" x="278.36" y="387.14" width="115.89" height="11.56"/><rect class="h" x="286.52" y="375.59" width="99.59" height="11.56"/><rect class="h" x="293.51" y="364.03" width="83.28" height="11.56"/><rect class="h" x="301.66" y="352.47" width="66.39" height="11.56"/><rect class="h" x="309.23" y="340.92" width="49.5" height="11.56"/><rect class="h" x="315.64" y="329.36" width="36.11" height="11.56"/><path class="h" d="M324.31,335.86c0-8.86,6.91-16,15.43-16s15.43,7.18,15.43,16" transform="translate(-6.34 -6.09)"/><path class="l" d="M337.4,236V279.7l-3,8.2c4.54,44,4.52,44.29,12.09,0l-3-8.2V236Q340.49,227.2,337.4,236Z" transform="translate(-6.34 -6.09)"/><path class="e" d="M341.92,238.09c-13.52-4.9-8-11.91-6.85-8.08,1.66,5.59,7-9.81,6.85-8.09s3,8.37,2.83,8.09S356.61,234.8,341.92,238.09Z" transform="translate(-6.34 -6.09)"/><line class="m" x1="334.49" y1="178" x2="334.49" y2="222.63"/><text class="n" transform="matrix(0.16, 1.08, -0.99, 0.14, 135.51, 353.99)">l</text><text class="o" transform="matrix(0.26, 1.05, -0.97, 0.24, 136.54, 363.49)">s</text><text class="n" transform="matrix(0.39, 1.02, -0.93, 0.36, 143.39, 389.08)">/</text><text class="n" transform="translate(149.34 404.04) rotate(64.55) scale(1.09 1)">f</text><text class="n" transform="matrix(0.56, 0.94, -0.86, 0.51, 153.64, 413.59)">t</text><text class="n" transform="matrix(0.75, 0.79, -0.73, 0.69, 175.28, 445.85)">o</text><text class="n" transform="matrix(0.82, 0.72, -0.66, 0.75, 190.39, 461.35)">f</text><text class="n" transform="matrix(0.87, 0.66, -0.61, 0.79, 197.9, 468.07)">S</text><text class="n" transform="matrix(0.93, 0.57, -0.52, 0.85, 210.8, 478.05)">y</text><text class="p" transform="matrix(0.96, 0.51, -0.47, 0.88, 229.89, 489.34)">&apos;</text><text class="n" transform="translate(230.5 489.92) rotate(25.05) scale(1.09 1)">ª</text><text class="q" transform="matrix(1.05, 0.27, -0.25, 0.97, 263.71, 503.79)">y</text><text class="r" transform="matrix(1.06, 0.21, -0.19, 0.98, 285.2, 508.98)">]</text><text class="n" transform="matrix(1.07, 0.19, -0.17, 0.98, 285.51, 509.08)">l</text><text class="s" transform="matrix(1.09, 0.11, -0.1, 0.99, 294.45, 510.88)">u</text><text class="t" transform="matrix(1.09, -0.01, 0.01, 1, 317.19, 513.09)">d</text><text class="u" transform="matrix(1.08, -0.12, 0.11, 0.99, 340.84, 512.67)">x</text><text class="v" transform="matrix(1.08, -0.19, 0.17, 0.99, 359.25, 510.47)">f</text><text class="n" transform="matrix(1.06, -0.26, 0.24, 0.97, 369.16, 508.86)">ª</text><text class="n" transform="translate(403.59 499.07) rotate(-23.75) scale(1.09 1)">r</text><text class="n" transform="matrix(0.96, -0.52, 0.48, 0.88, 426.69, 488.51)">f</text><text class="n" transform="matrix(0.95, -0.54, 0.49, 0.87, 434.88, 484.03)">]</text><text class="w" transform="matrix(0.91, -0.58, 0.54, 0.84, 435.68, 483.85)">a</text><text class="x" transform="matrix(0.88, -0.63, 0.58, 0.81, 453.55, 472.1)">]</text><text class="y" transform="matrix(0.85, -0.68, 0.62, 0.78, 454.37, 471.82)">u</text><text class="z" transform="matrix(0.81, -0.72, 0.66, 0.75, 471.36, 457.88)">&apos;</text><text class="t" transform="matrix(0.71, -0.82, 0.76, 0.65, 483.4, 446.74)">;</text><text class="n" transform="matrix(0.6, -0.91, 0.83, 0.55, 499.59, 427.81)">h</text><text class="aa" transform="matrix(0.54, -0.94, 0.87, 0.5, 513.1, 406.72)">&apos;</text><text class="p" transform="matrix(0.51, -0.96, 0.88, 0.47, 513.46, 406.31)">D</text><text class="ab" transform="matrix(0.41, -1.01, 0.93, 0.37, 520.58, 393.19)">n</text><text class="ac" transform="matrix(0.34, -1.03, 0.95, 0.31, 529.18, 370.84)">&apos;</text><text class="ad" transform="matrix(0.28, -1.05, 0.97, 0.26, 529.66, 370.13)">ª</text><text class="ae" transform="translate(165.35 290.37) rotate(-76.7) scale(1.15 1)">s</text><text class="ae" transform="translate(170.84 268.92) rotate(-71.3) scale(1.15 1)">l</text><text class="ae" transform="translate(171.9 264.92) rotate(-66.86) scale(0.93 1)">F</text><text class="af" transform="matrix(0.42, -0.83, 0.89, 0.45, 179.24, 248.44)">f</text><text class="ae" transform="matrix(0.59, -0.99, 0.86, 0.51, 178.68, 248.6)">t</text><text class="ag" transform="matrix(0.66, -0.94, 0.82, 0.57, 190.41, 229.68)">-</text><text class="ah" transform="matrix(0.8, -0.82, 0.72, 0.7, 199.17, 217.67)">o</text><text class="ai" transform="matrix(0.85, -0.77, 0.67, 0.74, 214.68, 202.13)">f</text><text class="ae" transform="translate(214.25 202.12) rotate(-39.08) scale(1.15 1)">S</text><text class="aj" transform="matrix(0.97, -0.61, 0.54, 0.84, 229.42, 189.67)">y</text><text class="ae" transform="matrix(1.01, -0.56, 0.48, 0.88, 248.74, 177.82)">&apos;</text><text class="ak" transform="matrix(1.02, -0.52, 0.46, 0.89, 248.53, 177.82)">I</text><text class="al" transform="matrix(1.09, -0.34, 0.3, 0.95, 272.93, 166.26)">y</text><text class="am" transform="matrix(1.12, -0.25, 0.22, 0.98, 294.51, 159.73)">]</text><text class="ae" transform="matrix(1.14, -0.16, 0.14, 0.99, 305.27, 157.12)">u</text><text class="ae" transform="matrix(1.15, -0.09, 0.08, 1, 326.54, 154.43)">l</text><text class="an" transform="matrix(1.15, -0.03, 0.02, 1, 330.77, 153.94)">D</text><text class="ae" transform="translate(346.99 153.38) rotate(4.12) scale(1.15 1)">x</text><text class="ao" transform="matrix(1.14, 0.15, -0.13, 0.99, 369.26, 155.29)">f</text><text class="ae" transform="matrix(1.14, 0.18, -0.16, 0.99, 369.1, 155.18)">I</text><text class="ap" transform="matrix(1.09, 0.37, -0.32, 0.95, 395.6, 160.26)">r</text><text class="aq" transform="matrix(1.06, 0.43, -0.37, 0.93, 415.69, 167.36)">f</text><text class="ae" transform="matrix(1.05, 0.46, -0.4, 0.92, 415.57, 167.21)">]</text><text class="ar" transform="matrix(1.01, 0.56, -0.48, 0.88, 425.76, 171.38)">a</text><text class="ag" transform="matrix(0.95, 0.65, -0.57, 0.82, 444.71, 182.15)">]</text><text class="ae" transform="matrix(0.88, 0.74, -0.64, 0.77, 453.94, 188.14)">u</text><text class="ae" transform="translate(470.11 202.19) rotate(43.86) scale(1.15 1)">&apos;</text><text class="as" transform="matrix(0.68, 0.92, -0.81, 0.59, 480.58, 212.64)">;</text><text class="ak" transform="matrix(0.53, 1.02, -0.89, 0.46, 493.57, 230.22)">h</text><text class="at" transform="matrix(0.45, 1.05, -0.92, 0.39, 503.33, 249.8)">&apos;</text><text class="ae" transform="translate(503.45 249.43) rotate(70.26) scale(1.15 1)">D</text><text class="an" transform="matrix(0.23, 1.12, -0.98, 0.2, 509.1, 264.41)">n</text><text class="au" transform="matrix(0.14, 1.14, -0.99, 0.12, 513.17, 286.24)">&apos;</text><text class="ae" transform="translate(513.29 285.95) rotate(85.62) scale(1.15 1)">I</text></svg>